<?xml version="1.0" ?><!DOCTYPE svg  PUBLIC '-//W3C//DTD SVG 1.1//EN'  'http://www.w3.org/Graphics/SVG/1.1/DTD/svg11.dtd'><svg enable-background="new 0 0 100 100" height="100px" id="Layer_1" version="1.1" viewBox="0 0 100 100" width="100px" xml:space="preserve" xmlns="http://www.w3.org/2000/svg" xmlns:xlink="http://www.w3.org/1999/xlink"><circle cx="50" cy="50" fill="#61C6C6" r="40"/><path d="M89.987,50.523L67.232,27.768l-0.002,0.003c0.777,0.858,1.27,2.071,1.27,3.429v37.6  c0,2.596-1.777,4.7-3.969,4.7H40.125h-2.5c-1.327,0-2.526-0.495-3.421-1.288l17.739,17.739  C72.958,88.946,89.714,71.722,89.987,50.523z" fill="#55AEAE"/><path d="M64.531,26.5H40.125v47h24.406c2.192,0,3.969-2.104,3.969-4.7V31.2C68.5,28.604,66.723,26.5,64.531,26.5z" fill="#555860"/><path d="M70.75,39.45V34.2c0-1.105-0.586-2-1.309-2H68.5v9.25h0.941C70.164,41.45,70.75,40.555,70.75,39.45z" fill="#F96161"/><path d="M69.441,54.7c0.723,0,1.309-0.895,1.309-2v-5.25c0-1.105-0.586-2-1.309-2H68.5v9.25H69.441z" fill="#D15455"/><path d="M69.441,67.95c0.723,0,1.309-0.895,1.309-2V60.7c0-1.105-0.586-2-1.309-2H68.5v9.25H69.441z" fill="#B34748"/><path d="M37.625,26.5c-2.761,0-5,2.104-5,4.7v37.6c0,2.596,2.239,4.7,5,4.7h2.5v-47H37.625z" fill="#474A52"/></svg>