<svg xmlns="http://www.w3.org/2000/svg" xmlns:xlink="http://www.w3.org/1999/xlink" enable-background="new 0 0 100 100" height="80" version="1.1" width="80" xml:space="preserve" style=""><rect id="backgroundrect" width="100%" height="100%" x="0" y="0" fill="none" stroke="none"/><g class="currentLayer" style=""><title>Layer 1</title><circle cx="40" cy="40" fill="#61C6C6" r="40" id="svg_1" class=""/><path d="M79.987,40.523 L57.232,17.768 l-0.0020000000000000026,0.003000000000000006 c0.777,0.8580000000000007 1.27,2.071 1.27,3.4290000000000003 v37.6 c0,2.596 -1.7770000000000001,4.7 -3.9690000000000003,4.7 H30.125 h-2.5 c-1.327,0 -2.526,-0.49500000000000033 -3.4210000000000003,-1.288 l17.739,17.739 C62.958,78.946 79.714,61.721999999999994 79.987,40.523 z" fill="#55AEAE" id="svg_2" class=""/><path d="M54.531000000000006,16.5 H30.125 v47 h24.406 c2.192,0 3.9690000000000003,-2.104 3.9690000000000003,-4.7 V21.2 C58.5,18.604 56.723,16.5 54.531000000000006,16.5 z" fill="#555860" id="svg_3" class=""/><path d="M60.75,29.450000000000003 V24.200000000000003 c0,-1.105 -0.5860000000000006,-2 -1.3090000000000002,-2 H58.5 v9.25 h0.9410000000000006 C60.164,31.450000000000003 60.75,30.555 60.75,29.450000000000003 z" fill="#F96161" id="svg_4" class=""/><path d="M59.441,44.7 c0.7230000000000006,0 1.3090000000000002,-0.8950000000000008 1.3090000000000002,-2 v-5.25 c0,-1.105 -0.5860000000000006,-2 -1.3090000000000002,-2 H58.5 v9.25 H59.441 z" fill="#D15455" id="svg_5" class=""/><path d="M59.441,57.95 c0.7230000000000006,0 1.3090000000000002,-0.8950000000000008 1.3090000000000002,-2 V50.7 c0,-1.105 -0.5860000000000006,-2 -1.3090000000000002,-2 H58.5 v9.25 H59.441 z" fill="#B34748" id="svg_6" class=""/><path d="M27.625,16.5 c-2.761,0 -5,2.104 -5,4.7 v37.6 c0,2.596 2.239,4.7 5,4.7 h2.5 v-47 H27.625 z" fill="#474A52" id="svg_7" class=""/></g></svg>